<mxfile host="Electron" modified="2024-06-09T04:47:36.684Z" agent="Mozilla/5.0 (Windows NT 10.0; Win64; x64) AppleWebKit/537.36 (KHTML, like Gecko) draw.io/24.4.8 Chrome/124.0.6367.207 Electron/30.0.6 Safari/537.36" etag="_bEambAES_qKHoo9bwvp" version="24.4.8" type="device">
  <diagram name="Página-1" id="4ji6WAamebwBJmTPNMnD">
    <mxGraphModel dx="1420" dy="830" grid="1" gridSize="10" guides="1" tooltips="1" connect="1" arrows="1" fold="1" page="1" pageScale="1" pageWidth="827" pageHeight="1169" background="#CCE5FF" math="0" shadow="0">
      <root>
        <mxCell id="0" />
        <mxCell id="1" parent="0" />
        <mxCell id="ELIuXP5KgHPnAkWb59xa-1" value="&lt;font style=&quot;font-size: 15px;&quot;&gt;7 Hacer un programa para llenar un vector de 10 elementos con el formato: 1, 0, 1, 0, 1, 0, 1, 0, 1, 0. &lt;br&gt;    Luego mostrar los números por pantalla. EL USUARIO NO INGRESA NINGÚN VALOR EN ESTE PROGRAMA.&lt;/font&gt;" style="text;whiteSpace=wrap;html=1;fontFamily=Comic Sans MS;fontStyle=1;fontSize=16;fontColor=#000000;" vertex="1" parent="1">
          <mxGeometry x="40" y="20" width="760" height="80" as="geometry" />
        </mxCell>
        <mxCell id="ELIuXP5KgHPnAkWb59xa-106" value="" style="group;aspect=fixed;" vertex="1" connectable="0" parent="1">
          <mxGeometry x="72.00235476233837" y="130" width="516.2252904753232" height="1180" as="geometry" />
        </mxCell>
        <mxCell id="ELIuXP5KgHPnAkWb59xa-2" value="" style="group;aspect=fixed;" vertex="1" connectable="0" parent="ELIuXP5KgHPnAkWb59xa-106">
          <mxGeometry x="275.49764523766163" width="50" height="50" as="geometry" />
        </mxCell>
        <mxCell id="ELIuXP5KgHPnAkWb59xa-3" value="" style="strokeWidth=2;html=1;shape=mxgraph.flowchart.start_2;whiteSpace=wrap;rounded=0;labelBackgroundColor=none;strokeColor=#000000;align=center;verticalAlign=middle;fontFamily=Helvetica;fontSize=12;fontColor=default;fillColor=#d5e8d4;aspect=fixed;" vertex="1" parent="ELIuXP5KgHPnAkWb59xa-2">
          <mxGeometry width="50" height="50" as="geometry" />
        </mxCell>
        <mxCell id="ELIuXP5KgHPnAkWb59xa-4" value="&lt;b&gt;&lt;font color=&quot;#000000&quot; style=&quot;font-size: 19px;&quot; face=&quot;Comic Sans MS&quot;&gt;I&lt;/font&gt;&lt;/b&gt;" style="text;strokeColor=none;align=center;fillColor=none;html=1;verticalAlign=middle;whiteSpace=wrap;rounded=0;fontFamily=Architects Daughter;fontSource=https://fonts.googleapis.com/css?family=Architects+Daughter;aspect=fixed;" vertex="1" parent="ELIuXP5KgHPnAkWb59xa-2">
          <mxGeometry x="5" y="10" width="40" height="30" as="geometry" />
        </mxCell>
        <mxCell id="ELIuXP5KgHPnAkWb59xa-5" value="" style="group;aspect=fixed;" vertex="1" connectable="0" parent="ELIuXP5KgHPnAkWb59xa-106">
          <mxGeometry x="205.49764523766163" y="70" width="190" height="50" as="geometry" />
        </mxCell>
        <mxCell id="ELIuXP5KgHPnAkWb59xa-6" value="" style="rounded=0;whiteSpace=wrap;html=1;labelBackgroundColor=none;strokeColor=#0f100e;strokeWidth=2;align=center;verticalAlign=middle;fontFamily=Helvetica;fontSize=12;fontColor=default;fillColor=#d5e8d4;" vertex="1" parent="ELIuXP5KgHPnAkWb59xa-5">
          <mxGeometry x="30" y="5" width="130" height="40" as="geometry" />
        </mxCell>
        <mxCell id="ELIuXP5KgHPnAkWb59xa-7" value="&lt;font color=&quot;#000000&quot; face=&quot;Comic Sans MS&quot;&gt;&lt;span style=&quot;font-size: 15px;&quot;&gt;&lt;b&gt;int vector[10]&lt;/b&gt;&lt;/span&gt;&lt;/font&gt;" style="text;strokeColor=none;align=center;fillColor=none;html=1;verticalAlign=middle;whiteSpace=wrap;rounded=0;fontFamily=Architects Daughter;fontSource=https://fonts.googleapis.com/css?family=Architects+Daughter;" vertex="1" parent="ELIuXP5KgHPnAkWb59xa-5">
          <mxGeometry width="190" height="50" as="geometry" />
        </mxCell>
        <mxCell id="ELIuXP5KgHPnAkWb59xa-8" value="" style="line;strokeWidth=2;direction=south;html=1;hachureGap=4;fontFamily=Architects Daughter;fontSource=https://fonts.googleapis.com/css?family=Architects+Daughter;strokeColor=#000000;" vertex="1" parent="ELIuXP5KgHPnAkWb59xa-5">
          <mxGeometry x="90" y="-20" width="10" height="30" as="geometry" />
        </mxCell>
        <mxCell id="ELIuXP5KgHPnAkWb59xa-12" value="" style="line;strokeWidth=2;direction=south;html=1;hachureGap=4;fontFamily=Architects Daughter;fontSource=https://fonts.googleapis.com/css?family=Architects+Daughter;strokeColor=#000000;" vertex="1" parent="ELIuXP5KgHPnAkWb59xa-106">
          <mxGeometry x="296.1899529299693" y="115.00328571428571" width="8.615384615384617" height="31.01657142857143" as="geometry" />
        </mxCell>
        <mxCell id="ELIuXP5KgHPnAkWb59xa-13" value="" style="group;aspect=fixed;" vertex="1" connectable="0" parent="ELIuXP5KgHPnAkWb59xa-106">
          <mxGeometry x="176.99764523766163" y="130" width="250" height="60.31" as="geometry" />
        </mxCell>
        <mxCell id="ELIuXP5KgHPnAkWb59xa-9" value="" style="group;" vertex="1" connectable="0" parent="ELIuXP5KgHPnAkWb59xa-13">
          <mxGeometry width="250" height="60.31" as="geometry" />
        </mxCell>
        <mxCell id="ELIuXP5KgHPnAkWb59xa-10" value="" style="rounded=0;whiteSpace=wrap;html=1;labelBackgroundColor=none;strokeColor=#0f100e;strokeWidth=2;align=center;verticalAlign=middle;fontFamily=Helvetica;fontSize=12;fontColor=default;fillColor=#d5e8d4;" vertex="1" parent="ELIuXP5KgHPnAkWb59xa-9">
          <mxGeometry y="12.92357142857143" width="250" height="34.462857142857146" as="geometry" />
        </mxCell>
        <mxCell id="ELIuXP5KgHPnAkWb59xa-11" value="&lt;font face=&quot;Comic Sans MS&quot; color=&quot;#000000&quot;&gt;&lt;span style=&quot;font-size: 15px;&quot;&gt;&lt;b&gt;int x = 0, par = 0, impar = 0&lt;/b&gt;&lt;/span&gt;&lt;/font&gt;" style="text;strokeColor=none;align=center;fillColor=none;html=1;verticalAlign=middle;whiteSpace=wrap;rounded=0;fontFamily=Architects Daughter;fontSource=https://fonts.googleapis.com/css?family=Architects+Daughter;" vertex="1" parent="ELIuXP5KgHPnAkWb59xa-13">
          <mxGeometry x="5" y="15.149999999999977" width="245" height="30" as="geometry" />
        </mxCell>
        <mxCell id="ELIuXP5KgHPnAkWb59xa-45" value="" style="group;aspect=fixed;" vertex="1" connectable="0" parent="ELIuXP5KgHPnAkWb59xa-106">
          <mxGeometry y="217" width="510.22764523766165" height="412.5799999999999" as="geometry" />
        </mxCell>
        <mxCell id="ELIuXP5KgHPnAkWb59xa-15" value="" style="whiteSpace=wrap;html=1;aspect=fixed;rounded=0;labelBackgroundColor=none;strokeColor=#000000;strokeWidth=2;align=center;verticalAlign=middle;fontFamily=Helvetica;fontSize=12;fontColor=default;fillColor=#d5e8d4;container=0;" vertex="1" parent="ELIuXP5KgHPnAkWb59xa-45">
          <mxGeometry x="97.64764523766166" width="412.58" height="412.58" as="geometry" />
        </mxCell>
        <mxCell id="ELIuXP5KgHPnAkWb59xa-28" value="" style="line;strokeWidth=2;html=1;perimeter=backbonePerimeter;points=[];outlineConnect=0;hachureGap=4;fontFamily=Architects Daughter;fontSource=https://fonts.googleapis.com/css?family=Architects+Daughter;strokeColor=#000000;container=0;" vertex="1" parent="ELIuXP5KgHPnAkWb59xa-45">
          <mxGeometry x="239.69404480058284" y="107.08319999999998" width="30.202148971043528" height="10.926857142857143" as="geometry" />
        </mxCell>
        <mxCell id="ELIuXP5KgHPnAkWb59xa-29" value="" style="line;strokeWidth=2;html=1;perimeter=backbonePerimeter;points=[];outlineConnect=0;hachureGap=4;fontFamily=Architects Daughter;fontSource=https://fonts.googleapis.com/css?family=Architects+Daughter;strokeColor=#000000;container=0;" vertex="1" parent="ELIuXP5KgHPnAkWb59xa-45">
          <mxGeometry x="409.76142779093067" y="107.08319999999998" width="37.545073757057004" height="10.926857142857143" as="geometry" />
        </mxCell>
        <mxCell id="ELIuXP5KgHPnAkWb59xa-30" value="" style="line;strokeWidth=2;direction=south;html=1;hachureGap=4;fontFamily=Architects Daughter;fontSource=https://fonts.googleapis.com/css?family=Architects+Daughter;strokeColor=#000000;container=0;" vertex="1" parent="ELIuXP5KgHPnAkWb59xa-45">
          <mxGeometry x="236.42000000000002" y="112.55000000000001" width="10.93" height="107.45" as="geometry" />
        </mxCell>
        <mxCell id="ELIuXP5KgHPnAkWb59xa-31" value="" style="line;strokeWidth=2;direction=south;html=1;hachureGap=4;fontFamily=Architects Daughter;fontSource=https://fonts.googleapis.com/css?family=Architects+Daughter;strokeColor=#000000;container=0;" vertex="1" parent="ELIuXP5KgHPnAkWb59xa-45">
          <mxGeometry x="440.75000000000006" y="113.63999999999999" width="10.93" height="106.36" as="geometry" />
        </mxCell>
        <mxCell id="ELIuXP5KgHPnAkWb59xa-32" value="" style="line;strokeWidth=2;direction=south;html=1;hachureGap=4;fontFamily=Architects Daughter;fontSource=https://fonts.googleapis.com/css?family=Architects+Daughter;strokeColor=#000000;container=0;" vertex="1" parent="ELIuXP5KgHPnAkWb59xa-45">
          <mxGeometry x="239.69" y="260" width="10.93" height="45.95" as="geometry" />
        </mxCell>
        <mxCell id="ELIuXP5KgHPnAkWb59xa-33" value="" style="line;strokeWidth=2;html=1;perimeter=backbonePerimeter;points=[];outlineConnect=0;hachureGap=4;fontFamily=Architects Daughter;fontSource=https://fonts.googleapis.com/css?family=Architects+Daughter;strokeColor=#000000;container=0;" vertex="1" parent="ELIuXP5KgHPnAkWb59xa-45">
          <mxGeometry x="245.15753050446187" y="300.4885714285715" width="202.1489710435258" height="10.926857142857143" as="geometry" />
        </mxCell>
        <mxCell id="ELIuXP5KgHPnAkWb59xa-17" value="" style="ellipse;whiteSpace=wrap;html=1;aspect=fixed;rounded=0;labelBackgroundColor=none;strokeColor=#0F140C;strokeWidth=3;align=center;verticalAlign=middle;fontFamily=Helvetica;fontSize=12;fontColor=default;fillColor=#d5e8d4;container=0;" vertex="1" parent="ELIuXP5KgHPnAkWb59xa-45">
          <mxGeometry x="6.774651428571431" y="29.808466285714303" width="189.69024" height="189.69024" as="geometry" />
        </mxCell>
        <mxCell id="ELIuXP5KgHPnAkWb59xa-18" value="" style="endArrow=none;html=1;rounded=0;strokeColor=#0F140C;fontFamily=Helvetica;fontSize=12;fontColor=default;fillColor=#B2C9AB;strokeWidth=2;" edge="1" parent="ELIuXP5KgHPnAkWb59xa-45">
          <mxGeometry width="50" height="50" relative="1" as="geometry">
            <mxPoint x="188.87728182857143" y="82.9217334857143" as="sourcePoint" />
            <mxPoint x="14.362261028571425" y="82.9217334857143" as="targetPoint" />
          </mxGeometry>
        </mxCell>
        <mxCell id="ELIuXP5KgHPnAkWb59xa-19" value="" style="endArrow=none;html=1;rounded=0;strokeColor=#0F140C;fontFamily=Helvetica;fontSize=12;fontColor=default;fillColor=#B2C9AB;exitX=0.264;exitY=0.952;exitDx=0;exitDy=0;exitPerimeter=0;strokeWidth=2;" edge="1" parent="ELIuXP5KgHPnAkWb59xa-45" source="ELIuXP5KgHPnAkWb59xa-17">
          <mxGeometry width="50" height="50" relative="1" as="geometry">
            <mxPoint x="52.30030902857145" y="143.62261028571425" as="sourcePoint" />
            <mxPoint x="59.88791862857141" y="82.9217334857143" as="targetPoint" />
          </mxGeometry>
        </mxCell>
        <mxCell id="ELIuXP5KgHPnAkWb59xa-20" value="" style="endArrow=none;html=1;rounded=0;strokeColor=#0F140C;fontFamily=Helvetica;fontSize=12;fontColor=default;fillColor=#B2C9AB;exitX=0.728;exitY=0.948;exitDx=0;exitDy=0;exitPerimeter=0;strokeWidth=2;" edge="1" parent="ELIuXP5KgHPnAkWb59xa-45" source="ELIuXP5KgHPnAkWb59xa-17">
          <mxGeometry width="50" height="50" relative="1" as="geometry">
            <mxPoint x="120.58879542857147" y="158.79782948571437" as="sourcePoint" />
            <mxPoint x="144.86914614857147" y="82.9217334857143" as="targetPoint" />
          </mxGeometry>
        </mxCell>
        <mxCell id="ELIuXP5KgHPnAkWb59xa-21" value="&lt;font face=&quot;Comic Sans MS&quot; color=&quot;#000000&quot;&gt;&lt;span style=&quot;font-size: 13px;&quot;&gt;&lt;b&gt;x&lt;/b&gt;&lt;/span&gt;&lt;/font&gt;" style="text;strokeColor=none;align=center;fillColor=none;html=1;verticalAlign=middle;whiteSpace=wrap;rounded=0;fontFamily=Architects Daughter;fontSource=https://fonts.googleapis.com/css?family=Architects+Daughter;container=0;" vertex="1" parent="ELIuXP5KgHPnAkWb59xa-45">
          <mxGeometry x="65.0366537142857" y="43.35776914285714" width="67.74651428571428" height="40.64790857142857" as="geometry" />
        </mxCell>
        <mxCell id="ELIuXP5KgHPnAkWb59xa-22" value="&lt;font color=&quot;#000000&quot; size=&quot;1&quot; face=&quot;Comic Sans MS&quot;&gt;&lt;b style=&quot;font-size: 13px;&quot;&gt;x++&lt;/b&gt;&lt;/font&gt;" style="text;strokeColor=none;align=center;fillColor=none;html=1;verticalAlign=middle;whiteSpace=wrap;rounded=0;fontFamily=Architects Daughter;fontSource=https://fonts.googleapis.com/css?family=Architects+Daughter;container=0;" vertex="1" parent="ELIuXP5KgHPnAkWb59xa-45">
          <mxGeometry x="134.1380982857143" y="115.16907428571426" width="67.74651428571428" height="40.64790857142857" as="geometry" />
        </mxCell>
        <mxCell id="ELIuXP5KgHPnAkWb59xa-23" value="&lt;font color=&quot;#000000&quot; size=&quot;1&quot; face=&quot;Comic Sans MS&quot;&gt;&lt;b style=&quot;font-size: 13px;&quot;&gt;x &amp;lt; 10&lt;/b&gt;&lt;/font&gt;" style="text;strokeColor=none;align=center;fillColor=none;html=1;verticalAlign=middle;whiteSpace=wrap;rounded=0;fontFamily=Architects Daughter;fontSource=https://fonts.googleapis.com/css?family=Architects+Daughter;container=0;" vertex="1" parent="ELIuXP5KgHPnAkWb59xa-45">
          <mxGeometry x="59.61693257142855" y="115.16907428571426" width="81.29581714285715" height="40.64790857142857" as="geometry" />
        </mxCell>
        <mxCell id="ELIuXP5KgHPnAkWb59xa-24" value="&lt;font color=&quot;#000000&quot; size=&quot;1&quot; face=&quot;Comic Sans MS&quot;&gt;&lt;b style=&quot;font-size: 13px;&quot;&gt;x = 0&lt;/b&gt;&lt;/font&gt;" style="text;strokeColor=none;align=center;fillColor=none;html=1;verticalAlign=middle;whiteSpace=wrap;rounded=0;fontFamily=Architects Daughter;fontSource=https://fonts.googleapis.com/css?family=Architects+Daughter;container=0;" vertex="1" parent="ELIuXP5KgHPnAkWb59xa-45">
          <mxGeometry y="115.16907428571426" width="67.74651428571428" height="40.64790857142857" as="geometry" />
        </mxCell>
        <mxCell id="ELIuXP5KgHPnAkWb59xa-26" value="" style="rhombus;whiteSpace=wrap;html=1;rounded=0;labelBackgroundColor=none;strokeColor=#0F140C;strokeWidth=2;align=center;verticalAlign=middle;fontFamily=Helvetica;fontSize=12;fontColor=default;fillColor=#d5e8d4;container=0;" vertex="1" parent="ELIuXP5KgHPnAkWb59xa-45">
          <mxGeometry x="269.8961937716263" y="41.522057142857136" width="142.04914285714284" height="142.04914285714284" as="geometry" />
        </mxCell>
        <mxCell id="ELIuXP5KgHPnAkWb59xa-27" value="&lt;font face=&quot;Comic Sans MS&quot; color=&quot;#000000&quot;&gt;&lt;span style=&quot;font-size: 16px;&quot;&gt;&lt;b&gt;x % 2&lt;/b&gt;&lt;/span&gt;&lt;/font&gt;&lt;div&gt;&lt;font face=&quot;Comic Sans MS&quot; color=&quot;#000000&quot;&gt;&lt;span style=&quot;font-size: 16px;&quot;&gt;&lt;b&gt;==&lt;/b&gt;&lt;/span&gt;&lt;/font&gt;&lt;/div&gt;&lt;div&gt;&lt;font face=&quot;Comic Sans MS&quot; color=&quot;#000000&quot;&gt;&lt;span style=&quot;font-size: 16px;&quot;&gt;&lt;b&gt;0&lt;/b&gt;&lt;/span&gt;&lt;/font&gt;&lt;/div&gt;" style="text;strokeColor=none;align=center;fillColor=none;html=1;verticalAlign=middle;whiteSpace=wrap;rounded=0;fontFamily=Architects Daughter;fontSource=https://fonts.googleapis.com/css?family=Architects+Daughter;container=0;" vertex="1" parent="ELIuXP5KgHPnAkWb59xa-45">
          <mxGeometry x="270.98887948591204" y="75.39531428571428" width="142.04914285714284" height="76.488" as="geometry" />
        </mxCell>
        <mxCell id="ELIuXP5KgHPnAkWb59xa-44" value="" style="line;strokeWidth=2;direction=south;html=1;hachureGap=4;fontFamily=Architects Daughter;fontSource=https://fonts.googleapis.com/css?family=Architects+Daughter;strokeColor=#000000;container=0;" vertex="1" parent="ELIuXP5KgHPnAkWb59xa-45">
          <mxGeometry x="440.75000000000006" y="250" width="10.93" height="55.95" as="geometry" />
        </mxCell>
        <mxCell id="ELIuXP5KgHPnAkWb59xa-35" value="" style="rounded=0;whiteSpace=wrap;html=1;labelBackgroundColor=none;strokeColor=#0f100e;strokeWidth=2;align=center;verticalAlign=middle;fontFamily=Helvetica;fontSize=12;fontColor=default;fillColor=#d5e8d4;container=0;" vertex="1" parent="ELIuXP5KgHPnAkWb59xa-45">
          <mxGeometry x="166.87764523766162" y="217.29000000000008" width="150" height="39.42" as="geometry" />
        </mxCell>
        <mxCell id="ELIuXP5KgHPnAkWb59xa-38" value="&lt;font face=&quot;Comic Sans MS&quot; color=&quot;#000000&quot;&gt;&lt;span style=&quot;font-size: 15px;&quot;&gt;&lt;b&gt;vector[x] = 1&lt;/b&gt;&lt;/span&gt;&lt;/font&gt;" style="text;strokeColor=none;align=center;fillColor=none;html=1;verticalAlign=middle;whiteSpace=wrap;rounded=0;fontFamily=Architects Daughter;fontSource=https://fonts.googleapis.com/css?family=Architects+Daughter;container=0;" vertex="1" parent="ELIuXP5KgHPnAkWb59xa-45">
          <mxGeometry x="180.84764523766165" y="213" width="124.05" height="50" as="geometry" />
        </mxCell>
        <mxCell id="ELIuXP5KgHPnAkWb59xa-42" value="" style="rounded=0;whiteSpace=wrap;html=1;labelBackgroundColor=none;strokeColor=#0f100e;strokeWidth=2;align=center;verticalAlign=middle;fontFamily=Helvetica;fontSize=12;fontColor=default;fillColor=#d5e8d4;container=0;" vertex="1" parent="ELIuXP5KgHPnAkWb59xa-45">
          <mxGeometry x="353.53764523766165" y="217.8800000000001" width="150" height="39.42" as="geometry" />
        </mxCell>
        <mxCell id="ELIuXP5KgHPnAkWb59xa-43" value="&lt;font face=&quot;Comic Sans MS&quot; color=&quot;#000000&quot;&gt;&lt;span style=&quot;font-size: 15px;&quot;&gt;&lt;b&gt;vector[x] = 0&lt;/b&gt;&lt;/span&gt;&lt;/font&gt;" style="text;strokeColor=none;align=center;fillColor=none;html=1;verticalAlign=middle;whiteSpace=wrap;rounded=0;fontFamily=Architects Daughter;fontSource=https://fonts.googleapis.com/css?family=Architects+Daughter;container=0;" vertex="1" parent="ELIuXP5KgHPnAkWb59xa-45">
          <mxGeometry x="367.5076452376617" y="213.59000000000003" width="124.05" height="50" as="geometry" />
        </mxCell>
        <mxCell id="ELIuXP5KgHPnAkWb59xa-102" value="&lt;font size=&quot;1&quot; face=&quot;Comic Sans MS&quot; color=&quot;#000000&quot;&gt;&lt;b style=&quot;font-size: 15px;&quot;&gt;V&lt;/b&gt;&lt;/font&gt;" style="text;strokeColor=none;align=center;fillColor=none;html=1;verticalAlign=middle;whiteSpace=wrap;rounded=0;fontFamily=Architects Daughter;fontSource=https://fonts.googleapis.com/css?family=Architects+Daughter;container=0;" vertex="1" parent="ELIuXP5KgHPnAkWb59xa-45">
          <mxGeometry x="227.87764523766162" y="88.00999999999999" width="30" height="30" as="geometry" />
        </mxCell>
        <mxCell id="ELIuXP5KgHPnAkWb59xa-104" value="&lt;font size=&quot;1&quot; face=&quot;Comic Sans MS&quot; color=&quot;#000000&quot;&gt;&lt;b style=&quot;font-size: 15px;&quot;&gt;F&lt;/b&gt;&lt;/font&gt;" style="text;strokeColor=none;align=center;fillColor=none;html=1;verticalAlign=middle;whiteSpace=wrap;rounded=0;fontFamily=Architects Daughter;fontSource=https://fonts.googleapis.com/css?family=Architects+Daughter;container=0;" vertex="1" parent="ELIuXP5KgHPnAkWb59xa-45">
          <mxGeometry x="423.67764523766164" y="89.00999999999999" width="30" height="30" as="geometry" />
        </mxCell>
        <mxCell id="ELIuXP5KgHPnAkWb59xa-46" value="" style="group;aspect=fixed;" vertex="1" connectable="0" parent="ELIuXP5KgHPnAkWb59xa-106">
          <mxGeometry x="5.997645237661629" y="682" width="510.22764523766165" height="412.5799999999999" as="geometry" />
        </mxCell>
        <mxCell id="ELIuXP5KgHPnAkWb59xa-47" value="" style="whiteSpace=wrap;html=1;aspect=fixed;rounded=0;labelBackgroundColor=none;strokeColor=#000000;strokeWidth=2;align=center;verticalAlign=middle;fontFamily=Helvetica;fontSize=12;fontColor=default;fillColor=#d5e8d4;container=0;" vertex="1" parent="ELIuXP5KgHPnAkWb59xa-46">
          <mxGeometry x="97.64764523766166" width="412.58" height="412.58" as="geometry" />
        </mxCell>
        <mxCell id="ELIuXP5KgHPnAkWb59xa-48" value="" style="line;strokeWidth=2;html=1;perimeter=backbonePerimeter;points=[];outlineConnect=0;hachureGap=4;fontFamily=Architects Daughter;fontSource=https://fonts.googleapis.com/css?family=Architects+Daughter;strokeColor=#000000;container=0;" vertex="1" parent="ELIuXP5KgHPnAkWb59xa-46">
          <mxGeometry x="257.29404480058287" y="132.53319999999997" width="30.202148971043528" height="10.926857142857143" as="geometry" />
        </mxCell>
        <mxCell id="ELIuXP5KgHPnAkWb59xa-49" value="" style="line;strokeWidth=2;html=1;perimeter=backbonePerimeter;points=[];outlineConnect=0;hachureGap=4;fontFamily=Architects Daughter;fontSource=https://fonts.googleapis.com/css?family=Architects+Daughter;strokeColor=#000000;container=0;" vertex="1" parent="ELIuXP5KgHPnAkWb59xa-46">
          <mxGeometry x="384.5014277909307" y="132.53319999999997" width="37.545073757057004" height="10.926857142857143" as="geometry" />
        </mxCell>
        <mxCell id="ELIuXP5KgHPnAkWb59xa-54" value="" style="ellipse;whiteSpace=wrap;html=1;aspect=fixed;rounded=0;labelBackgroundColor=none;strokeColor=#0F140C;strokeWidth=3;align=center;verticalAlign=middle;fontFamily=Helvetica;fontSize=12;fontColor=default;fillColor=#d5e8d4;container=0;" vertex="1" parent="ELIuXP5KgHPnAkWb59xa-46">
          <mxGeometry x="6.774651428571431" y="29.808466285714303" width="189.69024" height="189.69024" as="geometry" />
        </mxCell>
        <mxCell id="ELIuXP5KgHPnAkWb59xa-55" value="" style="endArrow=none;html=1;rounded=0;strokeColor=#0F140C;fontFamily=Helvetica;fontSize=12;fontColor=default;fillColor=#B2C9AB;strokeWidth=2;" edge="1" parent="ELIuXP5KgHPnAkWb59xa-46">
          <mxGeometry width="50" height="50" relative="1" as="geometry">
            <mxPoint x="188.87728182857143" y="82.9217334857143" as="sourcePoint" />
            <mxPoint x="14.362261028571425" y="82.9217334857143" as="targetPoint" />
          </mxGeometry>
        </mxCell>
        <mxCell id="ELIuXP5KgHPnAkWb59xa-56" value="" style="endArrow=none;html=1;rounded=0;strokeColor=#0F140C;fontFamily=Helvetica;fontSize=12;fontColor=default;fillColor=#B2C9AB;exitX=0.264;exitY=0.952;exitDx=0;exitDy=0;exitPerimeter=0;strokeWidth=2;" edge="1" parent="ELIuXP5KgHPnAkWb59xa-46" source="ELIuXP5KgHPnAkWb59xa-54">
          <mxGeometry width="50" height="50" relative="1" as="geometry">
            <mxPoint x="52.30030902857145" y="143.62261028571425" as="sourcePoint" />
            <mxPoint x="59.88791862857141" y="82.9217334857143" as="targetPoint" />
          </mxGeometry>
        </mxCell>
        <mxCell id="ELIuXP5KgHPnAkWb59xa-57" value="" style="endArrow=none;html=1;rounded=0;strokeColor=#0F140C;fontFamily=Helvetica;fontSize=12;fontColor=default;fillColor=#B2C9AB;exitX=0.728;exitY=0.948;exitDx=0;exitDy=0;exitPerimeter=0;strokeWidth=2;" edge="1" parent="ELIuXP5KgHPnAkWb59xa-46" source="ELIuXP5KgHPnAkWb59xa-54">
          <mxGeometry width="50" height="50" relative="1" as="geometry">
            <mxPoint x="120.58879542857147" y="158.79782948571437" as="sourcePoint" />
            <mxPoint x="144.86914614857147" y="82.9217334857143" as="targetPoint" />
          </mxGeometry>
        </mxCell>
        <mxCell id="ELIuXP5KgHPnAkWb59xa-58" value="&lt;font face=&quot;Comic Sans MS&quot; color=&quot;#000000&quot;&gt;&lt;span style=&quot;font-size: 13px;&quot;&gt;&lt;b&gt;x&lt;/b&gt;&lt;/span&gt;&lt;/font&gt;" style="text;strokeColor=none;align=center;fillColor=none;html=1;verticalAlign=middle;whiteSpace=wrap;rounded=0;fontFamily=Architects Daughter;fontSource=https://fonts.googleapis.com/css?family=Architects+Daughter;container=0;" vertex="1" parent="ELIuXP5KgHPnAkWb59xa-46">
          <mxGeometry x="65.0366537142857" y="43.35776914285714" width="67.74651428571428" height="40.64790857142857" as="geometry" />
        </mxCell>
        <mxCell id="ELIuXP5KgHPnAkWb59xa-59" value="&lt;font color=&quot;#000000&quot; size=&quot;1&quot; face=&quot;Comic Sans MS&quot;&gt;&lt;b style=&quot;font-size: 13px;&quot;&gt;x++&lt;/b&gt;&lt;/font&gt;" style="text;strokeColor=none;align=center;fillColor=none;html=1;verticalAlign=middle;whiteSpace=wrap;rounded=0;fontFamily=Architects Daughter;fontSource=https://fonts.googleapis.com/css?family=Architects+Daughter;container=0;" vertex="1" parent="ELIuXP5KgHPnAkWb59xa-46">
          <mxGeometry x="134.1380982857143" y="115.16907428571426" width="67.74651428571428" height="40.64790857142857" as="geometry" />
        </mxCell>
        <mxCell id="ELIuXP5KgHPnAkWb59xa-60" value="&lt;font color=&quot;#000000&quot; size=&quot;1&quot; face=&quot;Comic Sans MS&quot;&gt;&lt;b style=&quot;font-size: 13px;&quot;&gt;x &amp;lt; 10&lt;/b&gt;&lt;/font&gt;" style="text;strokeColor=none;align=center;fillColor=none;html=1;verticalAlign=middle;whiteSpace=wrap;rounded=0;fontFamily=Architects Daughter;fontSource=https://fonts.googleapis.com/css?family=Architects+Daughter;container=0;" vertex="1" parent="ELIuXP5KgHPnAkWb59xa-46">
          <mxGeometry x="59.61693257142855" y="115.16907428571426" width="81.29581714285715" height="40.64790857142857" as="geometry" />
        </mxCell>
        <mxCell id="ELIuXP5KgHPnAkWb59xa-61" value="&lt;font color=&quot;#000000&quot; size=&quot;1&quot; face=&quot;Comic Sans MS&quot;&gt;&lt;b style=&quot;font-size: 13px;&quot;&gt;x = 0&lt;/b&gt;&lt;/font&gt;" style="text;strokeColor=none;align=center;fillColor=none;html=1;verticalAlign=middle;whiteSpace=wrap;rounded=0;fontFamily=Architects Daughter;fontSource=https://fonts.googleapis.com/css?family=Architects+Daughter;container=0;" vertex="1" parent="ELIuXP5KgHPnAkWb59xa-46">
          <mxGeometry y="115.16907428571426" width="67.74651428571428" height="40.64790857142857" as="geometry" />
        </mxCell>
        <mxCell id="ELIuXP5KgHPnAkWb59xa-73" value="" style="group;aspect=fixed;" vertex="1" connectable="0" parent="ELIuXP5KgHPnAkWb59xa-46">
          <mxGeometry x="276" y="38" width="120" height="40" as="geometry" />
        </mxCell>
        <mxCell id="ELIuXP5KgHPnAkWb59xa-70" value="" style="shape=trapezoid;perimeter=trapezoidPerimeter;whiteSpace=wrap;html=1;fixedSize=1;rounded=0;labelBackgroundColor=none;strokeColor=#0F140C;strokeWidth=2;align=center;verticalAlign=middle;fontFamily=Helvetica;fontSize=12;fontColor=default;fillColor=#d5e8d4;container=0;" vertex="1" parent="ELIuXP5KgHPnAkWb59xa-73">
          <mxGeometry y="1.4800000000000182" width="120" height="37.04" as="geometry" />
        </mxCell>
        <mxCell id="ELIuXP5KgHPnAkWb59xa-72" value="&lt;font size=&quot;1&quot; face=&quot;Comic Sans MS&quot; color=&quot;#000000&quot;&gt;&lt;b style=&quot;font-size: 15px;&quot;&gt;vector[x]&lt;/b&gt;&lt;/font&gt;" style="text;strokeColor=none;align=center;fillColor=none;html=1;verticalAlign=middle;whiteSpace=wrap;rounded=0;fontFamily=Architects Daughter;fontSource=https://fonts.googleapis.com/css?family=Architects+Daughter;container=0;" vertex="1" parent="ELIuXP5KgHPnAkWb59xa-73">
          <mxGeometry x="19.899999999999977" width="88.46" height="40" as="geometry" />
        </mxCell>
        <mxCell id="ELIuXP5KgHPnAkWb59xa-76" value="" style="group;aspect=fixed;" vertex="1" connectable="0" parent="ELIuXP5KgHPnAkWb59xa-46">
          <mxGeometry x="287.5" y="98" width="97" height="80" as="geometry" />
        </mxCell>
        <mxCell id="ELIuXP5KgHPnAkWb59xa-62" value="" style="rhombus;whiteSpace=wrap;html=1;rounded=0;labelBackgroundColor=none;strokeColor=#0F140C;strokeWidth=2;align=center;verticalAlign=middle;fontFamily=Helvetica;fontSize=12;fontColor=default;fillColor=#d5e8d4;container=0;" vertex="1" parent="ELIuXP5KgHPnAkWb59xa-76">
          <mxGeometry width="97" height="80" as="geometry" />
        </mxCell>
        <mxCell id="ELIuXP5KgHPnAkWb59xa-75" value="&lt;font face=&quot;Comic Sans MS&quot; color=&quot;#000000&quot;&gt;&lt;span style=&quot;font-size: 16px;&quot;&gt;&lt;b&gt;x &amp;lt; 9&lt;/b&gt;&lt;/span&gt;&lt;/font&gt;" style="text;strokeColor=none;align=center;fillColor=none;html=1;verticalAlign=middle;whiteSpace=wrap;rounded=0;fontFamily=Architects Daughter;fontSource=https://fonts.googleapis.com/css?family=Architects+Daughter;container=0;" vertex="1" parent="ELIuXP5KgHPnAkWb59xa-76">
          <mxGeometry x="13.5" y="20" width="70" height="40" as="geometry" />
        </mxCell>
        <mxCell id="ELIuXP5KgHPnAkWb59xa-93" value="" style="line;strokeWidth=2;direction=south;html=1;hachureGap=4;fontFamily=Architects Daughter;fontSource=https://fonts.googleapis.com/css?family=Architects+Daughter;strokeColor=#000000;container=0;" vertex="1" parent="ELIuXP5KgHPnAkWb59xa-76">
          <mxGeometry x="42.5" y="-23.95" width="10.93" height="23.95" as="geometry" />
        </mxCell>
        <mxCell id="ELIuXP5KgHPnAkWb59xa-77" value="" style="group;aspect=fixed;" vertex="1" connectable="0" parent="ELIuXP5KgHPnAkWb59xa-46">
          <mxGeometry x="372" y="178" width="97" height="80" as="geometry" />
        </mxCell>
        <mxCell id="ELIuXP5KgHPnAkWb59xa-78" value="" style="rhombus;whiteSpace=wrap;html=1;rounded=0;labelBackgroundColor=none;strokeColor=#0F140C;strokeWidth=2;align=center;verticalAlign=middle;fontFamily=Helvetica;fontSize=12;fontColor=default;fillColor=#d5e8d4;container=0;" vertex="1" parent="ELIuXP5KgHPnAkWb59xa-77">
          <mxGeometry width="97" height="80" as="geometry" />
        </mxCell>
        <mxCell id="ELIuXP5KgHPnAkWb59xa-79" value="&lt;font face=&quot;Comic Sans MS&quot; color=&quot;#000000&quot;&gt;&lt;span style=&quot;font-size: 16px;&quot;&gt;&lt;b&gt;x == 9&lt;/b&gt;&lt;/span&gt;&lt;/font&gt;" style="text;strokeColor=none;align=center;fillColor=none;html=1;verticalAlign=middle;whiteSpace=wrap;rounded=0;fontFamily=Architects Daughter;fontSource=https://fonts.googleapis.com/css?family=Architects+Daughter;container=0;" vertex="1" parent="ELIuXP5KgHPnAkWb59xa-77">
          <mxGeometry x="13.5" y="20" width="70" height="40" as="geometry" />
        </mxCell>
        <mxCell id="ELIuXP5KgHPnAkWb59xa-80" value="" style="group;aspect=fixed;" vertex="1" connectable="0" parent="ELIuXP5KgHPnAkWb59xa-46">
          <mxGeometry x="195.11" y="178" width="120" height="40" as="geometry" />
        </mxCell>
        <mxCell id="ELIuXP5KgHPnAkWb59xa-81" value="" style="shape=trapezoid;perimeter=trapezoidPerimeter;whiteSpace=wrap;html=1;fixedSize=1;rounded=0;labelBackgroundColor=none;strokeColor=#0F140C;strokeWidth=2;align=center;verticalAlign=middle;fontFamily=Helvetica;fontSize=12;fontColor=default;fillColor=#d5e8d4;container=0;" vertex="1" parent="ELIuXP5KgHPnAkWb59xa-80">
          <mxGeometry y="1.4800000000000182" width="120" height="37.04" as="geometry" />
        </mxCell>
        <mxCell id="ELIuXP5KgHPnAkWb59xa-82" value="&lt;font size=&quot;1&quot; face=&quot;Comic Sans MS&quot; color=&quot;#000000&quot;&gt;&lt;b style=&quot;font-size: 15px;&quot;&gt;&quot;,&amp;nbsp; &quot;&lt;/b&gt;&lt;/font&gt;" style="text;strokeColor=none;align=center;fillColor=none;html=1;verticalAlign=middle;whiteSpace=wrap;rounded=0;fontFamily=Architects Daughter;fontSource=https://fonts.googleapis.com/css?family=Architects+Daughter;container=0;" vertex="1" parent="ELIuXP5KgHPnAkWb59xa-80">
          <mxGeometry x="19.899999999999977" width="88.46" height="40" as="geometry" />
        </mxCell>
        <mxCell id="ELIuXP5KgHPnAkWb59xa-64" value="" style="line;strokeWidth=2;direction=south;html=1;hachureGap=4;fontFamily=Architects Daughter;fontSource=https://fonts.googleapis.com/css?family=Architects+Daughter;strokeColor=#000000;container=0;" vertex="1" parent="ELIuXP5KgHPnAkWb59xa-46">
          <mxGeometry x="252.29" y="136.53" width="10.93" height="43.47" as="geometry" />
        </mxCell>
        <mxCell id="ELIuXP5KgHPnAkWb59xa-50" value="" style="line;strokeWidth=2;direction=south;html=1;hachureGap=4;fontFamily=Architects Daughter;fontSource=https://fonts.googleapis.com/css?family=Architects+Daughter;strokeColor=#000000;container=0;" vertex="1" parent="ELIuXP5KgHPnAkWb59xa-46">
          <mxGeometry x="415.03" y="136.53" width="10.93" height="43.47" as="geometry" />
        </mxCell>
        <mxCell id="ELIuXP5KgHPnAkWb59xa-83" value="" style="group;aspect=fixed;" vertex="1" connectable="0" parent="ELIuXP5KgHPnAkWb59xa-46">
          <mxGeometry x="295.03" y="258" width="120" height="40" as="geometry" />
        </mxCell>
        <mxCell id="ELIuXP5KgHPnAkWb59xa-84" value="" style="shape=trapezoid;perimeter=trapezoidPerimeter;whiteSpace=wrap;html=1;fixedSize=1;rounded=0;labelBackgroundColor=none;strokeColor=#0F140C;strokeWidth=2;align=center;verticalAlign=middle;fontFamily=Helvetica;fontSize=12;fontColor=default;fillColor=#d5e8d4;container=0;" vertex="1" parent="ELIuXP5KgHPnAkWb59xa-83">
          <mxGeometry y="1.4800000000000182" width="120" height="37.04" as="geometry" />
        </mxCell>
        <mxCell id="ELIuXP5KgHPnAkWb59xa-85" value="&lt;font size=&quot;1&quot; face=&quot;Comic Sans MS&quot; color=&quot;#000000&quot;&gt;&lt;b style=&quot;font-size: 15px;&quot;&gt;&quot;. &quot;&lt;/b&gt;&lt;/font&gt;" style="text;strokeColor=none;align=center;fillColor=none;html=1;verticalAlign=middle;whiteSpace=wrap;rounded=0;fontFamily=Architects Daughter;fontSource=https://fonts.googleapis.com/css?family=Architects+Daughter;container=0;" vertex="1" parent="ELIuXP5KgHPnAkWb59xa-83">
          <mxGeometry x="19.899999999999977" width="88.46" height="40" as="geometry" />
        </mxCell>
        <mxCell id="ELIuXP5KgHPnAkWb59xa-88" value="" style="line;strokeWidth=2;html=1;perimeter=backbonePerimeter;points=[];outlineConnect=0;hachureGap=4;fontFamily=Architects Daughter;fontSource=https://fonts.googleapis.com/css?family=Architects+Daughter;strokeColor=#000000;container=0;" vertex="1" parent="ELIuXP5KgHPnAkWb59xa-46">
          <mxGeometry x="349" y="211.57" width="23.34" height="10.93" as="geometry" />
        </mxCell>
        <mxCell id="ELIuXP5KgHPnAkWb59xa-90" value="" style="line;strokeWidth=2;html=1;perimeter=backbonePerimeter;points=[];outlineConnect=0;hachureGap=4;fontFamily=Architects Daughter;fontSource=https://fonts.googleapis.com/css?family=Architects+Daughter;strokeColor=#000000;container=0;" vertex="1" parent="ELIuXP5KgHPnAkWb59xa-46">
          <mxGeometry x="469" y="212.52999999999997" width="23.34" height="10.93" as="geometry" />
        </mxCell>
        <mxCell id="ELIuXP5KgHPnAkWb59xa-87" value="" style="line;strokeWidth=2;direction=south;html=1;hachureGap=4;fontFamily=Architects Daughter;fontSource=https://fonts.googleapis.com/css?family=Architects+Daughter;strokeColor=#000000;container=0;" vertex="1" parent="ELIuXP5KgHPnAkWb59xa-46">
          <mxGeometry x="347" y="217.5" width="10.93" height="42.5" as="geometry" />
        </mxCell>
        <mxCell id="ELIuXP5KgHPnAkWb59xa-51" value="" style="line;strokeWidth=2;direction=south;html=1;hachureGap=4;fontFamily=Architects Daughter;fontSource=https://fonts.googleapis.com/css?family=Architects+Daughter;strokeColor=#000000;container=0;" vertex="1" parent="ELIuXP5KgHPnAkWb59xa-46">
          <mxGeometry x="483.41" y="219.5" width="10.93" height="110.5" as="geometry" />
        </mxCell>
        <mxCell id="ELIuXP5KgHPnAkWb59xa-86" value="" style="line;strokeWidth=2;direction=south;html=1;hachureGap=4;fontFamily=Architects Daughter;fontSource=https://fonts.googleapis.com/css?family=Architects+Daughter;strokeColor=#000000;container=0;" vertex="1" parent="ELIuXP5KgHPnAkWb59xa-46">
          <mxGeometry x="251.65" y="216.5" width="10.93" height="153.5" as="geometry" />
        </mxCell>
        <mxCell id="ELIuXP5KgHPnAkWb59xa-92" value="" style="line;strokeWidth=2;direction=south;html=1;hachureGap=4;fontFamily=Architects Daughter;fontSource=https://fonts.googleapis.com/css?family=Architects+Daughter;strokeColor=#000000;container=0;" vertex="1" parent="ELIuXP5KgHPnAkWb59xa-46">
          <mxGeometry x="349.56" y="298" width="10.93" height="32" as="geometry" />
        </mxCell>
        <mxCell id="ELIuXP5KgHPnAkWb59xa-89" value="" style="line;strokeWidth=2;html=1;perimeter=backbonePerimeter;points=[];outlineConnect=0;hachureGap=4;fontFamily=Architects Daughter;fontSource=https://fonts.googleapis.com/css?family=Architects+Daughter;strokeColor=#000000;container=0;" vertex="1" parent="ELIuXP5KgHPnAkWb59xa-46">
          <mxGeometry x="353.56" y="326" width="136.44" height="10.93" as="geometry" />
        </mxCell>
        <mxCell id="ELIuXP5KgHPnAkWb59xa-52" value="" style="line;strokeWidth=2;direction=south;html=1;hachureGap=4;fontFamily=Architects Daughter;fontSource=https://fonts.googleapis.com/css?family=Architects+Daughter;strokeColor=#000000;container=0;" vertex="1" parent="ELIuXP5KgHPnAkWb59xa-46">
          <mxGeometry x="416.12" y="330" width="10.93" height="40" as="geometry" />
        </mxCell>
        <mxCell id="ELIuXP5KgHPnAkWb59xa-53" value="" style="line;strokeWidth=2;html=1;perimeter=backbonePerimeter;points=[];outlineConnect=0;hachureGap=4;fontFamily=Architects Daughter;fontSource=https://fonts.googleapis.com/css?family=Architects+Daughter;strokeColor=#000000;container=0;" vertex="1" parent="ELIuXP5KgHPnAkWb59xa-46">
          <mxGeometry x="260" y="361" width="162.96" height="10.93" as="geometry" />
        </mxCell>
        <mxCell id="ELIuXP5KgHPnAkWb59xa-103" value="&lt;font size=&quot;1&quot; face=&quot;Comic Sans MS&quot; color=&quot;#000000&quot;&gt;&lt;b style=&quot;font-size: 15px;&quot;&gt;V&lt;/b&gt;&lt;/font&gt;" style="text;strokeColor=none;align=center;fillColor=none;html=1;verticalAlign=middle;whiteSpace=wrap;rounded=0;fontFamily=Architects Daughter;fontSource=https://fonts.googleapis.com/css?family=Architects+Daughter;container=0;" vertex="1" parent="ELIuXP5KgHPnAkWb59xa-46">
          <mxGeometry x="245" y="112.64999999999998" width="30" height="30" as="geometry" />
        </mxCell>
        <mxCell id="ELIuXP5KgHPnAkWb59xa-101" value="&lt;font size=&quot;1&quot; face=&quot;Comic Sans MS&quot; color=&quot;#000000&quot;&gt;&lt;b style=&quot;font-size: 15px;&quot;&gt;F&lt;/b&gt;&lt;/font&gt;" style="text;strokeColor=none;align=center;fillColor=none;html=1;verticalAlign=middle;whiteSpace=wrap;rounded=0;fontFamily=Architects Daughter;fontSource=https://fonts.googleapis.com/css?family=Architects+Daughter;container=0;" vertex="1" parent="ELIuXP5KgHPnAkWb59xa-46">
          <mxGeometry x="401.05" y="112.52999999999997" width="30" height="30" as="geometry" />
        </mxCell>
        <mxCell id="ELIuXP5KgHPnAkWb59xa-100" value="&lt;font size=&quot;1&quot; face=&quot;Comic Sans MS&quot; color=&quot;#000000&quot;&gt;&lt;b style=&quot;font-size: 15px;&quot;&gt;V&lt;/b&gt;&lt;/font&gt;" style="text;strokeColor=none;align=center;fillColor=none;html=1;verticalAlign=middle;whiteSpace=wrap;rounded=0;fontFamily=Architects Daughter;fontSource=https://fonts.googleapis.com/css?family=Architects+Daughter;container=0;" vertex="1" parent="ELIuXP5KgHPnAkWb59xa-46">
          <mxGeometry x="338.67" y="190.5" width="30" height="30" as="geometry" />
        </mxCell>
        <mxCell id="ELIuXP5KgHPnAkWb59xa-105" value="&lt;font size=&quot;1&quot; face=&quot;Comic Sans MS&quot; color=&quot;#000000&quot;&gt;&lt;b style=&quot;font-size: 15px;&quot;&gt;F&lt;/b&gt;&lt;/font&gt;" style="text;strokeColor=none;align=center;fillColor=none;html=1;verticalAlign=middle;whiteSpace=wrap;rounded=0;fontFamily=Architects Daughter;fontSource=https://fonts.googleapis.com/css?family=Architects+Daughter;container=0;" vertex="1" parent="ELIuXP5KgHPnAkWb59xa-46">
          <mxGeometry x="469" y="194.46000000000004" width="30" height="30" as="geometry" />
        </mxCell>
        <mxCell id="ELIuXP5KgHPnAkWb59xa-94" value="" style="line;strokeWidth=2;direction=south;html=1;hachureGap=4;fontFamily=Architects Daughter;fontSource=https://fonts.googleapis.com/css?family=Architects+Daughter;strokeColor=#000000;container=0;" vertex="1" parent="ELIuXP5KgHPnAkWb59xa-106">
          <mxGeometry x="305.80764523766163" y="1094.58" width="10.93" height="35.42" as="geometry" />
        </mxCell>
        <mxCell id="ELIuXP5KgHPnAkWb59xa-95" value="" style="line;strokeWidth=2;direction=south;html=1;hachureGap=4;fontFamily=Architects Daughter;fontSource=https://fonts.googleapis.com/css?family=Architects+Daughter;strokeColor=#000000;container=0;" vertex="1" parent="ELIuXP5KgHPnAkWb59xa-106">
          <mxGeometry x="305.80764523766163" y="627.58" width="10.93" height="60.42" as="geometry" />
        </mxCell>
        <mxCell id="ELIuXP5KgHPnAkWb59xa-96" value="" style="line;strokeWidth=2;direction=south;html=1;hachureGap=4;fontFamily=Architects Daughter;fontSource=https://fonts.googleapis.com/css?family=Architects+Daughter;strokeColor=#000000;container=0;" vertex="1" parent="ELIuXP5KgHPnAkWb59xa-106">
          <mxGeometry x="294.8776452376616" y="178" width="10.93" height="42" as="geometry" />
        </mxCell>
        <mxCell id="ELIuXP5KgHPnAkWb59xa-97" value="" style="group;aspect=fixed;" vertex="1" connectable="0" parent="ELIuXP5KgHPnAkWb59xa-106">
          <mxGeometry x="286.2676452376616" y="1130" width="50" height="50" as="geometry" />
        </mxCell>
        <mxCell id="ELIuXP5KgHPnAkWb59xa-98" value="" style="strokeWidth=2;html=1;shape=mxgraph.flowchart.start_2;whiteSpace=wrap;rounded=0;labelBackgroundColor=none;strokeColor=#000000;align=center;verticalAlign=middle;fontFamily=Helvetica;fontSize=12;fontColor=default;fillColor=#d5e8d4;" vertex="1" parent="ELIuXP5KgHPnAkWb59xa-97">
          <mxGeometry width="50" height="50" as="geometry" />
        </mxCell>
        <mxCell id="ELIuXP5KgHPnAkWb59xa-99" value="&lt;b&gt;&lt;font color=&quot;#000000&quot; style=&quot;font-size: 19px;&quot; face=&quot;Comic Sans MS&quot;&gt;F&lt;/font&gt;&lt;/b&gt;" style="text;strokeColor=none;align=center;fillColor=none;html=1;verticalAlign=middle;whiteSpace=wrap;rounded=0;fontFamily=Architects Daughter;fontSource=https://fonts.googleapis.com/css?family=Architects+Daughter;" vertex="1" parent="ELIuXP5KgHPnAkWb59xa-97">
          <mxGeometry x="5" y="10" width="40" height="30" as="geometry" />
        </mxCell>
      </root>
    </mxGraphModel>
  </diagram>
</mxfile>
